<svg width="28" height="27" viewBox="0 0 28 27" fill="none" xmlns="http://www.w3.org/2000/svg">
<path d="M26.3579 1.6395C23.694 1.7986 18.3993 2.37773 15.1307 4.48344C14.9051 4.62873 14.7773 4.88709 14.7773 5.15721V23.7725C14.7773 24.3634 15.3912 24.7369 15.909 24.4627C19.2719 22.6813 24.1354 22.1953 26.5402 22.0623C27.3612 22.0167 27.9995 21.324 27.9995 20.4937V3.21009C28 2.30406 27.2533 1.58629 26.3579 1.6395ZM12.8688 4.48344C9.60069 2.37773 4.30597 1.79911 1.64208 1.6395C0.746667 1.58629 0 2.30406 0 3.21009V20.4942C0 21.3251 0.638264 22.0178 1.45931 22.0628C3.86507 22.1958 8.73104 22.6823 12.094 24.4647C12.6102 24.7384 13.2222 24.3655 13.2222 23.7761V5.148C13.2222 4.87737 13.0949 4.62924 12.8688 4.48344Z" fill="white"/>
</svg>
