<svg width="24" height="24" viewBox="0 0 24 24" fill="none" xmlns="http://www.w3.org/2000/svg">
<path d="M20.5 4.5H18.377C18.2581 4.50021 18.1431 4.54281 18.0527 4.62015C17.9624 4.6975 17.9026 4.80452 17.884 4.922C17.8385 5.21297 17.7387 5.49281 17.59 5.747C17.5455 5.82294 17.5217 5.90929 17.5213 5.99733C17.5208 6.08537 17.5436 6.17197 17.5873 6.24838C17.6311 6.32479 17.6942 6.3883 17.7703 6.43248C17.8465 6.47666 17.933 6.49995 18.021 6.5H20C20.1326 6.5 20.2598 6.55268 20.3536 6.64645C20.4473 6.74021 20.5 6.86739 20.5 7V16.5C20.5 16.6326 20.4473 16.7598 20.3536 16.8536C20.2598 16.9473 20.1326 17 20 17H4C3.86739 17 3.74021 16.9473 3.64645 16.8536C3.55268 16.7598 3.5 16.6326 3.5 16.5V7C3.5 6.86739 3.55268 6.74021 3.64645 6.64645C3.74021 6.55268 3.86739 6.5 4 6.5H5.813C5.90104 6.49995 5.98751 6.47666 6.06366 6.43248C6.13981 6.3883 6.20294 6.32479 6.24668 6.24838C6.29041 6.17197 6.3132 6.08537 6.31273 5.99733C6.31226 5.90929 6.28855 5.82294 6.244 5.747C6.09448 5.49272 5.99439 5.21247 5.949 4.921C5.93023 4.8037 5.87031 4.69692 5.77998 4.61977C5.68964 4.54263 5.57479 4.50017 5.456 4.5H3.5C2.96957 4.5 2.46086 4.71071 2.08579 5.08579C1.71071 5.46086 1.5 5.96957 1.5 6.5V18.5C1.5 19.0304 1.71071 19.5391 2.08579 19.9142C2.46086 20.2893 2.96957 20.5 3.5 20.5H11V22H5.75C5.48478 22 5.23043 22.1054 5.04289 22.2929C4.85536 22.4804 4.75 22.7348 4.75 23C4.75 23.2652 4.85536 23.5196 5.04289 23.7071C5.23043 23.8946 5.48478 24 5.75 24H18.25C18.5152 24 18.7696 23.8946 18.9571 23.7071C19.1446 23.5196 19.25 23.2652 19.25 23C19.25 22.7348 19.1446 22.4804 18.9571 22.2929C18.7696 22.1054 18.5152 22 18.25 22H13V20.5H20.5C21.0304 20.5 21.5391 20.2893 21.9142 19.9142C22.2893 19.5391 22.5 19.0304 22.5 18.5V6.5C22.5 5.96957 22.2893 5.46086 21.9142 5.08579C21.5391 4.71071 21.0304 4.5 20.5 4.5Z" fill="white"/>
<path d="M7.49311 4.88279C7.56885 5.06547 7.69706 5.2216 7.86153 5.33142C8.026 5.44124 8.21934 5.49984 8.41711 5.49979H10.4171V10.9998C10.4171 11.3976 10.5751 11.7791 10.8564 12.0604C11.1378 12.3418 11.5193 12.4998 11.9171 12.4998C12.3149 12.4998 12.6965 12.3418 12.9778 12.0604C13.2591 11.7791 13.4171 11.3976 13.4171 10.9998V5.49979H15.4171C15.6149 5.49974 15.8082 5.44107 15.9726 5.33119C16.137 5.2213 16.2651 5.06514 16.3408 4.88244C16.4165 4.69974 16.4363 4.49871 16.3977 4.30475C16.3591 4.1108 16.2639 3.93264 16.1241 3.79279L12.6241 0.292786C12.4366 0.105315 12.1823 0 11.9171 0C11.6519 0 11.3976 0.105315 11.2101 0.292786L7.71011 3.79279C7.57018 3.93263 7.47487 4.11084 7.43624 4.30486C7.39761 4.49889 7.4174 4.70001 7.49311 4.88279Z" fill="white"/>
</svg>
