<svg width="13" height="14" viewBox="0 0 13 14" fill="none" xmlns="http://www.w3.org/2000/svg">
<path d="M10.6119 7.02298C10.5624 6.97707 10.5036 6.94072 10.4391 6.916C10.3745 6.89128 10.3053 6.87868 10.2355 6.87891C10.1657 6.87914 10.0966 6.8922 10.0322 6.91734C9.96783 6.94249 9.90937 6.97922 9.86019 7.02546C9.81101 7.07169 9.77206 7.12651 9.74557 7.18679C9.71909 7.24706 9.70559 7.31162 9.70583 7.37677C9.70608 7.44192 9.72007 7.50639 9.74701 7.56649C9.77395 7.62659 9.81331 7.68115 9.86285 7.72706C10.3124 8.14217 10.6692 8.63639 10.9127 9.1811C11.1562 9.72581 11.2814 10.3102 11.2813 10.9004C11.2813 11.5053 9.4166 12.3879 6.50003 12.3879C3.58347 12.3879 1.71878 11.5053 1.71878 10.9004C1.71794 10.3141 1.8409 9.73335 2.08064 9.1914C2.32037 8.64946 2.67219 8.15692 3.11597 7.74193C3.21492 7.64903 3.27045 7.52336 3.27045 7.39237C3.27045 7.26138 3.21492 7.13571 3.11597 7.04281C3.01643 6.95046 2.88179 6.89862 2.74144 6.89862C2.60109 6.89862 2.46644 6.95046 2.36691 7.04281C1.82243 7.54815 1.39086 8.14934 1.09722 8.81153C0.803571 9.47372 0.653696 10.1837 0.656283 10.9004C0.656283 12.5119 3.66847 13.3796 6.50003 13.3796C9.3316 13.3796 12.3438 12.5119 12.3438 10.9004C12.3458 10.1791 12.1937 9.46463 11.8963 8.79886C11.599 8.13308 11.1623 7.52934 10.6119 7.02298Z" fill="#737373"/>
<path d="M6.5 7.42995C7.2355 7.42995 7.95448 7.22639 8.56603 6.84501C9.17757 6.46363 9.65421 5.92156 9.93568 5.28735C10.2171 4.65313 10.2908 3.95527 10.1473 3.28199C10.0038 2.60871 9.64963 1.99027 9.12955 1.50487C8.60948 1.01946 7.94686 0.688897 7.22549 0.554974C6.50413 0.421051 5.75641 0.489785 5.0769 0.752484C4.39738 1.01518 3.81659 1.46005 3.40797 2.03082C2.99935 2.6016 2.78125 3.27265 2.78125 3.95912C2.78125 4.87964 3.17305 5.76246 3.87045 6.41337C4.56785 7.06427 5.51373 7.42995 6.5 7.42995ZM6.5 1.47995C7.02536 1.47995 7.53891 1.62535 7.97573 1.89776C8.41255 2.17018 8.75301 2.55737 8.95405 3.01038C9.1551 3.46339 9.2077 3.96187 9.10521 4.44278C9.00272 4.92369 8.74973 5.36543 8.37825 5.71215C8.00677 6.05887 7.53347 6.29499 7.01821 6.39065C6.50295 6.48631 5.96886 6.43721 5.4835 6.24957C4.99813 6.06193 4.58328 5.74416 4.29141 5.33647C3.99954 4.92877 3.84375 4.44945 3.84375 3.95912C3.84375 3.3016 4.1236 2.67101 4.62175 2.20608C5.11989 1.74115 5.79552 1.47995 6.5 1.47995Z" fill="#737373"/>
</svg>
